<mxfile host="65bd71144e">
    <diagram id="V9W-O8cVtLvRACYVoKjz" name="Page-1">
        <mxGraphModel dx="894" dy="468" grid="1" gridSize="10" guides="1" tooltips="1" connect="1" arrows="1" fold="1" page="1" pageScale="1" pageWidth="827" pageHeight="1169" math="0" shadow="0">
            <root>
                <mxCell id="0"/>
                <mxCell id="1" parent="0"/>
                <mxCell id="27" value="" style="group;movable=0;resizable=0;rotatable=0;deletable=0;editable=0;connectable=0;" parent="1" vertex="1" connectable="0">
                    <mxGeometry x="9" y="70" width="801" height="480" as="geometry"/>
                </mxCell>
                <mxCell id="17" value="" style="group" parent="27" vertex="1" connectable="0">
                    <mxGeometry width="357.3" height="470" as="geometry"/>
                </mxCell>
                <mxCell id="26" value="" style="rounded=0;whiteSpace=wrap;html=1;fontSize=14;" parent="17" vertex="1">
                    <mxGeometry x="8.08" y="110.16" width="221.92" height="329.84" as="geometry"/>
                </mxCell>
                <mxCell id="8" value="" style="rounded=0;whiteSpace=wrap;html=1;" parent="17" vertex="1">
                    <mxGeometry x="8.078151183693365" y="41.859375" width="225.4538557630785" height="31.578125" as="geometry"/>
                </mxCell>
                <mxCell id="9" value="https://brainstorm.sheeshee.n" style="rounded=1;whiteSpace=wrap;html=1;arcSize=50;fontSize=10;align=right;" parent="17" vertex="1">
                    <mxGeometry x="39.36262758599678" y="46.08203125" width="162.29740105420308" height="23.1328125" as="geometry"/>
                </mxCell>
                <mxCell id="10" value="" style="sketch=0;pointerEvents=1;shadow=0;dashed=0;html=1;strokeColor=none;fillColor=#505050;labelPosition=center;verticalLabelPosition=bottom;verticalAlign=top;outlineConnect=0;align=center;shape=mxgraph.office.security.lock_protected;rounded=1;" parent="17" vertex="1">
                    <mxGeometry x="52.140794003839" y="50.3046875" width="10.736597300508818" height="14.6875" as="geometry"/>
                </mxCell>
                <mxCell id="11" value="" style="rounded=0;whiteSpace=wrap;html=1;fillColor=#f5f5f5;strokeColor=#666666;gradientColor=#ffffff;gradientDirection=east;" parent="17" vertex="1">
                    <mxGeometry x="8.078151183693365" y="73.4375" width="223.98510100240696" height="36.71875" as="geometry"/>
                </mxCell>
                <mxCell id="12" value="" style="shape=mxgraph.signs.healthcare.brain;html=1;pointerEvents=1;fillColor=#000000;strokeColor=none;verticalLabelPosition=bottom;verticalAlign=top;align=center;rounded=1;" parent="17" vertex="1">
                    <mxGeometry x="26.73868041802506" y="80.78125" width="25.402113585813957" height="22.03125" as="geometry"/>
                </mxCell>
                <mxCell id="14" value="Brainstorm.js" style="text;html=1;strokeColor=none;fillColor=none;align=center;verticalAlign=middle;whiteSpace=wrap;rounded=0;fontSize=14;fontColor=#000000;" parent="17" vertex="1">
                    <mxGeometry x="81.51588921726943" y="80.78125" width="44.062642820145626" height="22.03125" as="geometry"/>
                </mxCell>
                <mxCell id="7" value="" style="verticalLabelPosition=bottom;verticalAlign=top;html=1;shadow=0;dashed=0;strokeWidth=1;shape=mxgraph.android.phone2;strokeColor=#c0c0c0;" parent="17" vertex="1">
                    <mxGeometry width="241.02999999999994" height="470" as="geometry"/>
                </mxCell>
                <mxCell id="19" value="" style="strokeWidth=1;shadow=0;dashed=0;align=center;html=1;shape=mxgraph.mockup.containers.browserWindow;rSize=0;strokeColor=#666666;strokeColor2=#008cff;strokeColor3=#c4c4c4;mainText=,;recursiveResize=0;" parent="27" vertex="1">
                    <mxGeometry x="251" width="550" height="480" as="geometry"/>
                </mxCell>
                <mxCell id="20" value="Page 1" style="strokeWidth=1;shadow=0;dashed=0;align=center;html=1;shape=mxgraph.mockup.containers.anchor;fontSize=17;fontColor=#666666;align=left;" parent="19" vertex="1">
                    <mxGeometry x="60" y="12" width="110" height="26" as="geometry"/>
                </mxCell>
                <mxCell id="21" value="https://brainstorm.sheeshee.net" style="strokeWidth=1;shadow=0;dashed=0;align=center;html=1;shape=mxgraph.mockup.containers.anchor;rSize=0;fontSize=17;fontColor=#666666;align=left;" parent="19" vertex="1">
                    <mxGeometry x="130" y="60" width="250" height="26" as="geometry"/>
                </mxCell>
                <mxCell id="22" value="" style="rounded=0;whiteSpace=wrap;html=1;fillColor=#e3c800;fontColor=#000000;strokeColor=#B09500;gradientColor=#FFFF66;gradientDirection=east;" parent="19" vertex="1">
                    <mxGeometry y="110" width="550" height="36.72" as="geometry"/>
                </mxCell>
                <mxCell id="23" value="" style="shape=mxgraph.signs.healthcare.brain;html=1;pointerEvents=1;fillColor=#000000;strokeColor=none;verticalLabelPosition=bottom;verticalAlign=top;align=center;rounded=1;" parent="19" vertex="1">
                    <mxGeometry x="9.99868041802506" y="117.34125" width="25.402113585813957" height="22.03125" as="geometry"/>
                </mxCell>
                <mxCell id="24" value="Brainstorm.js" style="text;html=1;strokeColor=none;fillColor=none;align=center;verticalAlign=middle;whiteSpace=wrap;rounded=0;fontSize=14;fontColor=#000000;" parent="19" vertex="1">
                    <mxGeometry x="64.77588921726942" y="117.34125" width="44.062642820145626" height="22.03125" as="geometry"/>
                </mxCell>
            </root>
        </mxGraphModel>
    </diagram>
</mxfile>
